<!-- icon666.com - MILLIONS vector ICONS FREE --><svg viewBox="0 0 32 32" xmlns="http://www.w3.org/2000/svg"><g id="Rewind_back_ward" data-name="Rewind back ward"><path d="m11 26-10-10 10-10h7l-10 10 10 10z" fill="#fcd354"></path><path d="m24 26-10-10 10-10h7l-10 10 10 10z" fill="#fcd354"></path><g fill="#2c2d30"><path d="m9.414 16 9.293-9.293a1 1 0 0 0 -.707-1.707h-7a1 1 0 0 0 -.707.293l-10 10a1 1 0 0 0 0 1.414l10 10a1 1 0 0 0 .707.293h7a1 1 0 0 0 .707-1.707zm2 9-9-9 9-9h4.172l-8.293 8.293a1 1 0 0 0 0 1.414l8.293 8.293z"></path><path d="m22.414 16 9.293-9.293a1 1 0 0 0 -.707-1.707h-7a1 1 0 0 0 -.707.293l-10 10a1 1 0 0 0 0 1.414l10 10a1 1 0 0 0 .707.293h7a1 1 0 0 0 .707-1.707zm2 9-9-9 9-9h4.172l-8.293 8.293a1 1 0 0 0 0 1.414l8.293 8.293z"></path></g></g></svg>