<!-- icon666.com - MILLIONS vector ICONS FREE --><svg viewBox="0 0 32 32" xmlns="http://www.w3.org/2000/svg"><g id="Fast_forward" data-name="Fast forward"><path d="m14 26 10-10-10-10h7l10 10-10 10z" fill="#fcd354"></path><path d="m1 26 10-10-10-10h7l10 10-10 10z" fill="#fcd354"></path><g fill="#2c2d30"><path d="m31.707 15.293-10-10a1 1 0 0 0 -.707-.293h-7a1 1 0 0 0 -.707 1.707l9.293 9.293-9.293 9.293a1 1 0 0 0 .707 1.707h7a1 1 0 0 0 .707-.293l10-10a1 1 0 0 0 0-1.414zm-11.121 9.707h-4.172l8.293-8.293a1 1 0 0 0 0-1.414l-8.293-8.293h4.172l9 9z"></path><path d="m18.707 15.293-10-10a1 1 0 0 0 -.707-.293h-7a1 1 0 0 0 -.707 1.707l9.293 9.293-9.293 9.293a1 1 0 0 0 .707 1.707h7a1 1 0 0 0 .707-.293l10-10a1 1 0 0 0 0-1.414zm-11.121 9.707h-4.172l8.293-8.293a1 1 0 0 0 0-1.414l-8.293-8.293h4.172l9 9z"></path></g></g></svg>